<?xml version="1.0" standalone="no"?>
<!DOCTYPE svg PUBLIC "-//W3C//DTD SVG 20010904//EN"
 "http://www.w3.org/TR/2001/REC-SVG-20010904/DTD/svg10.dtd">
<svg version="1.0" xmlns="http://www.w3.org/2000/svg"
 width="512.000000pt" height="512.000000pt" viewBox="0 0 512.000000 512.000000"
 preserveAspectRatio="xMidYMid meet">
<metadata>
Created by potrace 1.14, written by Peter Selinger 2001-2017
</metadata>
<g transform="translate(0.000000,512.000000) scale(0.100000,-0.100000)"
fill="#000000" stroke="none">
<path d="M2452 4954 c-82 -18 -175 -64 -237 -117 -28 -25 -97 -109 -154 -188
-58 -79 -146 -200 -196 -269 -307 -419 -473 -651 -496 -695 -28 -50 -60 -157
-58 -191 0 -11 3 -14 6 -6 2 6 8 12 13 12 4 0 38 18 75 41 234 142 575 253
875 287 88 9 477 9 570 -1 299 -32 665 -157 910 -312 23 -15 44 -24 47 -22 9
10 -17 112 -43 167 -20 42 -153 239 -207 305 -9 12 -146 200 -167 232 -126
182 -427 581 -471 624 -121 117 -299 168 -467 133z"/>
<path d="M2389 3676 c-2 -2 -33 -6 -69 -10 -80 -8 -127 -14 -160 -21 -14 -3
-36 -7 -50 -10 -64 -12 -133 -29 -227 -57 -94 -28 -102 -33 -97 -53 3 -11 6
-28 8 -36 19 -100 98 -270 170 -366 217 -288 536 -391 849 -273 197 74 388
281 473 513 23 64 55 180 51 183 -1 1 -38 13 -82 27 -112 37 -252 68 -364 82
-30 4 -63 9 -75 12 -23 5 -422 14 -427 9z"/>
<path d="M1551 3445 c-109 -59 -221 -137 -221 -154 0 -34 54 -130 138 -246 48
-66 90 -124 95 -130 4 -5 37 -50 72 -100 35 -49 68 -95 73 -100 4 -6 32 -43
61 -83 l53 -72 738 0 739 0 24 33 c184 249 407 563 428 602 15 27 30 64 33 81
7 30 4 33 -86 91 -113 73 -195 116 -208 108 -6 -4 -10 -15 -10 -25 0 -10 -14
-58 -31 -107 -121 -341 -373 -593 -677 -675 -83 -22 -265 -30 -354 -15 -129
21 -263 82 -386 174 -166 127 -303 329 -372 552 -17 55 -35 101 -38 101 -4 0
-36 -16 -71 -35z"/>
<path d="M1269 2945 c-120 -31 -225 -105 -288 -203 -34 -54 -352 -773 -388
-876 -56 -166 -6 -342 127 -444 49 -37 134 -92 142 -92 3 0 85 -47 183 -105
154 -91 185 -105 223 -105 41 0 44 2 38 23 -8 26 -35 167 -41 217 -3 19 -7 46
-9 60 -3 14 -8 43 -11 65 -3 22 -7 51 -10 65 -3 14 -7 41 -9 60 -3 19 -14 94
-25 165 -56 365 -57 377 -49 439 21 156 146 296 298 334 19 5 64 10 100 11 36
1 66 4 67 5 2 1 -56 83 -128 181 -72 99 -133 184 -136 191 -7 19 -34 22 -84 9z"/>
<path d="M3779 2946 c-21 -24 -278 -380 -276 -382 1 -1 31 -3 67 -5 152 -5
262 -66 342 -189 60 -93 71 -183 44 -355 -8 -55 -18 -118 -21 -140 -4 -22 -17
-107 -30 -190 -13 -82 -27 -172 -31 -200 -10 -75 -52 -317 -60 -343 -6 -20 -3
-22 38 -22 39 0 74 18 294 145 137 80 262 158 277 173 117 110 158 282 103
432 -20 55 -103 249 -159 371 -9 19 -59 133 -111 253 -105 240 -125 275 -200
343 -80 73 -251 140 -277 109z"/>
<path d="M1455 2381 c-53 -24 -103 -75 -128 -130 -16 -37 -19 -58 -13 -125 3
-45 8 -97 11 -116 14 -81 74 -463 80 -510 26 -184 50 -301 69 -335 l21 -40
1064 0 1064 0 18 30 c22 38 36 86 44 150 3 28 10 73 15 100 5 28 11 70 15 95
3 25 10 70 15 100 5 30 13 75 16 100 3 25 7 55 9 67 4 25 15 97 21 128 2 10 6
37 9 60 3 22 10 67 15 100 28 176 -16 275 -144 329 -34 14 -153 16 -1099 15
-999 0 -1064 -2 -1102 -18z m1177 -393 c22 -6 61 -31 88 -54 181 -164 24 -458
-217 -404 -47 10 -65 21 -108 64 -89 89 -99 190 -31 303 19 31 89 82 130 95
35 10 96 9 138 -4z"/>
<path d="M2518 1825 c-75 -41 -29 -157 56 -141 67 13 87 103 31 140 -30 20
-52 20 -87 1z"/>
<path d="M735 949 c-53 -16 -89 -40 -122 -82 -75 -100 -67 -230 19 -316 78
-76 -69 -71 1933 -71 1989 0 1847 -5 1918 67 53 53 72 98 72 173 0 76 -18 120
-71 173 -72 72 62 67 -1928 66 -1019 0 -1804 -5 -1821 -10z"/>
<path d="M744 303 c16 -43 55 -85 101 -110 l50 -28 1670 0 1670 0 41 27 c45
29 104 95 104 115 0 11 -354 13 -1821 13 -1730 0 -1821 -1 -1815 -17z"/>
</g>
</svg>
